<?xml version="1.0" standalone="no"?>
<!DOCTYPE svg PUBLIC "-//W3C//DTD SVG 20010904//EN"
 "http://www.w3.org/TR/2001/REC-SVG-20010904/DTD/svg10.dtd">
<svg version="1.0" xmlns="http://www.w3.org/2000/svg"
 width="1000.000000pt" height="1000.000000pt" viewBox="0 0 1000.000000 1000.000000"
 preserveAspectRatio="xMidYMid meet">
<metadata>
Created by potrace 1.14, written by Peter Selinger 2001-2017
</metadata>
<g transform="translate(0.000000,1000.000000) scale(0.100000,-0.100000)"
fill="#000000" stroke="none">
<path d="M0 5000 l0 -5000 5000 0 5000 0 0 5000 0 5000 -5000 0 -5000 0 0
-5000z m3140 -55 l0 -2275 -765 0 -765 0 0 2275 0 2275 765 0 765 0 0 -2275z
m4732 18 c543 -1242 990 -2266 994 -2276 6 -16 -34 -17 -786 -15 l-792 3 -151
393 -151 392 -866 0 -867 0 -147 -382 c-81 -211 -150 -389 -154 -396 -7 -10
-170 -12 -784 -10 l-777 3 979 2240 c539 1232 986 2255 994 2273 l16 32 753 0
753 0 986 -2257z"/>
<path d="M5901 5148 c-117 -304 -216 -559 -218 -565 -4 -10 87 -13 437 -13
247 0 440 4 438 9 -178 465 -434 1121 -438 1121 -3 0 -102 -249 -219 -552z"/>
</g>
</svg>
